<?xml version="1.0" encoding="UTF-8" standalone="no"?>
<!DOCTYPE svg PUBLIC "-//W3C//DTD SVG 1.1//EN" "http://www.w3.org/Graphics/SVG/1.1/DTD/svg11.dtd">
<svg width="100%" height="100%" viewBox="0 0 100 100" version="1.1" xmlns="http://www.w3.org/2000/svg" xmlns:xlink="http://www.w3.org/1999/xlink" xml:space="preserve" xmlns:serif="http://www.serif.com/" style="fill-rule:evenodd;clip-rule:evenodd;stroke-linejoin:round;stroke-miterlimit:2;">
    <g id="Artboard1" transform="matrix(1,0,0,1.00101,0,-6.67872)">
        <rect x="0" y="6.672" width="100" height="99.874" style="fill:none;"/>
        <clipPath id="_clip1">
            <rect x="0" y="6.672" width="100" height="99.874"/>
        </clipPath>
        <g clip-path="url(#_clip1)">
            <g transform="matrix(1,0,0,0.998994,0,6.67978)">
                <path d="M52.736,40.653C54.408,40.653 55.767,39.294 55.767,37.621L55.767,28.294C55.767,26.621 54.408,25.262 52.736,25.262C51.06,25.262 49.704,26.621 49.704,28.294L49.704,37.621C49.704,39.294 51.061,40.653 52.736,40.653Z" style="fill-rule:nonzero;"/>
            </g>
            <g transform="matrix(1,0,0,0.998994,0,6.67978)">
                <path d="M45.287,40.653C46.956,40.653 48.317,39.294 48.317,37.621L48.317,26.891C48.317,25.216 46.957,23.86 45.287,23.86C43.61,23.86 42.254,25.216 42.254,26.891L42.254,37.62C42.253,39.294 43.609,40.653 45.287,40.653Z" style="fill-rule:nonzero;"/>
            </g>
            <g transform="matrix(1,0,0,0.998994,0,6.67978)">
                <path d="M37.833,40.653C39.506,40.653 40.865,39.294 40.865,37.621L40.865,31.094C40.865,29.42 39.506,28.062 37.833,28.062C36.16,28.062 34.803,29.42 34.803,31.094L34.803,37.621C34.803,39.294 36.16,40.653 37.833,40.653Z" style="fill-rule:nonzero;"/>
            </g>
            <g transform="matrix(1,0,0,0.998994,0,6.67978)">
                <path d="M62.408,31.843C61.513,30.459 59.669,30.062 58.286,30.954C56.904,31.847 56.507,33.693 57.398,35.075L60.436,39.781C55.762,40.645 48.308,42.736 45.752,47.483C42.585,53.368 44.098,57.041 44.098,57.041L42.405,57.041C42.405,57.041 41.642,53.205 42.856,49.697C44.365,45.324 47.767,42.099 47.767,42.099L34.756,42.099L34.756,50.667C34.756,50.667 34.918,53.173 35.944,55.043C36.863,56.715 38.9,57.688 38.9,57.688L38.832,99.966L62.313,99.966L56.429,58.018L56.43,58.018L63.785,51.496C64.137,51.183 64.409,50.792 64.582,50.354C68.295,40.888 68.292,40.891 67.449,39.655L62.408,31.843Z" style="fill-rule:nonzero;"/>
            </g>
            <g transform="matrix(1,0,0,0.998994,0,6.67978)">
                <path d="M27.727,10.841L17.399,10.841L17.399,59.373L27.727,59.373L27.727,39.735L33.028,39.735L33.028,31.107L27.727,31.107L27.727,10.841Z" style="fill-rule:nonzero;"/>
            </g>
            <g transform="matrix(1,0,0,0.998994,0,6.67978)">
                <path d="M8.606,31.107L0.561,31.107L0.561,39.735L8.606,39.735L8.606,53.439L15.311,53.439L15.311,16.774L8.606,16.774L8.606,31.107Z" style="fill-rule:nonzero;"/>
            </g>
            <g transform="matrix(1,0,0,0.998994,0,6.67978)">
                <path d="M71.911,31.107L64.338,31.095L69.812,39.735L71.911,39.735L71.911,59.373L82.238,59.373L82.238,10.841L71.911,10.841L71.911,31.107Z" style="fill-rule:nonzero;"/>
            </g>
            <g transform="matrix(1,0,0,0.998994,0,6.67978)">
                <path d="M91.031,31.107L91.031,16.774L84.327,16.774L84.327,53.439L91.031,53.439L91.031,39.735L99.077,39.735L99.077,31.107L91.031,31.107Z" style="fill-rule:nonzero;"/>
            </g>
        </g>
    </g>
</svg>
