<svg xmlns="http://www.w3.org/2000/svg" xmlns:xlink="http://www.w3.org/1999/xlink" version="1.1" x="0px" y="0px" viewBox="0 0 100 125" enable-background="new 0 0 100 100" xml:space="preserve"><path d="M52.736,40.653c1.672,0,3.031-1.359,3.031-3.032v-9.327c0-1.673-1.359-3.032-3.031-3.032c-1.676,0-3.032,1.359-3.032,3.032  v9.327C49.704,39.294,51.061,40.653,52.736,40.653z"/><path d="M45.287,40.653c1.669,0,3.03-1.359,3.03-3.032V26.891c0-1.675-1.36-3.031-3.03-3.031c-1.677,0-3.033,1.356-3.033,3.031  v10.729C42.253,39.294,43.609,40.653,45.287,40.653z"/><path d="M37.833,40.653c1.673,0,3.032-1.359,3.032-3.032v-6.527c0-1.674-1.359-3.032-3.032-3.032s-3.03,1.358-3.03,3.032v6.527  C34.803,39.294,36.16,40.653,37.833,40.653z"/><path d="M62.408,31.843c-0.895-1.384-2.739-1.781-4.122-0.889c-1.382,0.893-1.779,2.739-0.888,4.121l3.038,4.706  c-4.674,0.864-12.128,2.955-14.684,7.702c-3.167,5.885-1.654,9.558-1.654,9.558h-1.693c0,0-0.763-3.836,0.451-7.344  c1.509-4.373,4.911-7.598,4.911-7.598H34.756v8.568c0,0,0.162,2.506,1.188,4.376c0.919,1.672,2.956,2.645,2.956,2.645v32.78h21.889  l-4.36-32.45h0.001l7.355-6.522c0.352-0.313,0.624-0.704,0.797-1.142c3.713-9.466,3.71-9.463,2.867-10.699L62.408,31.843z"/><polygon points="27.727,10.841 17.399,10.841 17.399,59.373 27.727,59.373 27.727,39.735 33.028,39.735 33.028,31.107   27.727,31.107 "/><polygon points="8.606,31.107 0.561,31.107 0.561,39.735 8.606,39.735 8.606,53.439 15.311,53.439 15.311,16.774 8.606,16.774 "/><polygon points="71.911,31.107 64.338,31.095 69.812,39.735 71.911,39.735 71.911,59.373 82.238,59.373 82.238,10.841   71.911,10.841 "/><polygon points="91.031,31.107 91.031,16.774 84.327,16.774 84.327,53.439 91.031,53.439 91.031,39.735 99.077,39.735   99.077,31.107 "/><text x="0" y="115" fill="#000000" font-size="5px" font-weight="bold" font-family="'Helvetica Neue', Helvetica, Arial-Unicode, Arial, Sans-serif">Created by Luis Prado</text><text x="0" y="120" fill="#000000" font-size="5px" font-weight="bold" font-family="'Helvetica Neue', Helvetica, Arial-Unicode, Arial, Sans-serif">from the Noun Project</text></svg>